<?xml version="1.0" encoding="utf-8"?>
<!-- Generator: Adobe Illustrator 16.0.0, SVG Export Plug-In . SVG Version: 6.00 Build 0)  -->
<!DOCTYPE svg PUBLIC "-//W3C//DTD SVG 1.1//EN" "http://www.w3.org/Graphics/SVG/1.1/DTD/svg11.dtd">
<svg version="1.1" id="Layer_1" xmlns="http://www.w3.org/2000/svg" xmlns:xlink="http://www.w3.org/1999/xlink" x="0px" y="0px"
	 width="300px" height="300px" viewBox="0 0 300 300" enable-background="new 0 0 300 300" xml:space="preserve">
<g>
	<path fill="#15284B" d="M150.77,297.954c-19.971,0-39.351-3.912-57.592-11.632c-17.619-7.449-33.441-18.115-47.028-31.704
		c-13.584-13.582-24.252-29.403-31.707-47.025c-7.716-18.248-11.631-37.624-11.631-57.591c0-19.97,3.915-39.348,11.631-57.597
		c7.455-17.62,18.118-33.441,31.707-47.024c13.586-13.589,29.409-24.252,47.028-31.703c18.244-7.721,37.621-11.632,57.592-11.632
		s39.346,3.911,57.592,11.632c17.618,7.451,33.44,18.116,47.026,31.703c13.584,13.579,24.25,29.404,31.705,47.024
		c7.719,18.249,11.632,37.627,11.632,57.597c0,19.967-3.913,39.343-11.632,57.591c-7.455,17.624-18.121,33.445-31.705,47.025
		c-13.584,13.589-29.408,24.255-47.026,31.704C190.115,294.042,170.742,297.954,150.77,297.954z M150.77,8.019
		c-19.167,0-37.761,3.756-55.269,11.159c-16.9,7.149-32.085,17.385-45.129,30.427C37.336,62.642,27.1,77.824,19.948,94.734
		c-7.409,17.506-11.159,36.102-11.159,55.268c0,19.161,3.75,37.757,11.159,55.265c7.151,16.907,17.388,32.093,30.426,45.13
		c13.039,13.038,28.224,23.274,45.127,30.428c17.505,7.401,36.101,11.157,55.269,11.157c19.167,0,37.763-3.756,55.265-11.157
		c16.907-7.153,32.091-17.39,45.13-30.428c13.037-13.037,23.275-28.221,30.428-45.13c7.407-17.508,11.159-36.104,11.159-55.265
		c0-19.166-3.752-37.762-11.159-55.268c-7.153-16.91-17.391-32.093-30.428-45.13c-13.039-13.037-28.223-23.274-45.13-30.427
		C188.528,11.774,169.934,8.019,150.77,8.019z"/>
	<path fill="#15284B" d="M259.557,150.002c0,60.082-48.707,108.786-108.787,108.786c-60.082,0-108.792-48.704-108.792-108.786
		c0-60.085,48.71-108.789,108.792-108.789C210.85,41.213,259.557,89.917,259.557,150.002z"/>
	<path fill="#FFFFFF" d="M165.118,216.998c7.853,13.791,8.738,28.093,1.979,31.941c-6.762,3.849-18.611-4.21-26.461-18.002
		c-7.855-13.788-8.886-28.21-2.125-32.061C145.27,195.026,157.267,203.205,165.118,216.998z M138.698,199.319
		c-6.256,3.56-5.057,17.462,2.677,31.045c7.735,13.585,19.08,21.709,25.331,18.146c6.256-3.561,5.059-17.462-2.675-31.045
		C156.296,203.883,144.956,195.757,138.698,199.319z"/>
	<path fill="#FFFFFF" d="M140.301,216.901c8.2-13.589,20.246-21.344,26.906-17.324c6.662,4.019,5.419,18.294-2.785,31.881
		c-8.197,13.587-20.278,21.533-26.938,17.513C130.819,244.95,132.102,230.489,140.301,216.901z M137.777,248.59
		c6.163,3.719,17.708-4.113,25.784-17.498c8.074-13.385,9.627-27.249,3.461-30.968c-6.164-3.72-17.705,4.113-25.782,17.499
		C133.163,231.006,131.614,244.874,137.777,248.59z"/>
	<path fill="#FFFFFF" d="M152.312,210.289c15.871,0.033,28.724,6.367,28.706,14.149c-0.016,7.777-12.894,14.06-28.765,14.028
		c-15.869-0.032-28.898-6.298-28.884-14.082C123.385,216.604,136.441,210.259,152.312,210.289z M123.846,224.444
		c-0.012,7.198,12.647,13.06,28.28,13.095c15.63,0.029,28.313-5.779,28.327-12.981c0.018-7.196-12.646-13.058-28.277-13.092
		C136.549,211.435,123.863,217.244,123.846,224.444z"/>
	<circle fill="#FFFFFF" cx="152.691" cy="224.28" r="7.915"/>
	<circle fill="#FFFFFF" cx="167.26" cy="200.359" r="3.676"/>
	<path fill="#FFFFFF" d="M137.781,217.783c0,1.331-1.081,2.415-2.42,2.415c-1.332,0-2.413-1.084-2.413-2.415
		c0-1.336,1.081-2.418,2.413-2.418C136.7,215.365,137.781,216.447,137.781,217.783z"/>
	<path fill="#FFFFFF" d="M180.27,232.027c0,2.302-1.867,4.166-4.17,4.166c-2.296,0-4.163-1.864-4.163-4.166
		c0-2.3,1.867-4.167,4.163-4.167C178.403,227.86,180.27,229.728,180.27,232.027z"/>
	<g>
		<defs>
			<path id="SVGID_1_" d="M146.729,77.206c0,0-5.662-6.769-14.641-4.006c0,0-5.8,0.966-11.877,6.766l-0.411-0.276
				c0,0-8.289-9.667-20.165-7.179c0,0-9.113,1.93-9.392,12.287c0,0-0.826,7.044,7.046,11.601c0,0,6.491,3.456,14.497-0.555
				c0,0,6.354-3.311,7.735-5.106c0,0,7.32,5.384,10.358,6.078c0,0,9.803,4.693,16.569-2.764
				C146.448,94.052,153.354,86.042,146.729,77.206z M107.369,89.494c-7.459,2.073-9.113-2.07-9.113-2.07
				c-2.07-4.143,1.654-6.769,1.654-6.769c7.043-3.313,13.95,4.558,13.95,4.558C112.896,87.148,107.369,89.494,107.369,89.494z
				 M141.501,87.896c0,0-1.846,4.06-9.2,1.641c0,0-5.408-2.602-6.282-4.578c0,0,7.265-7.539,14.144-3.898
				C140.163,81.06,143.766,83.852,141.501,87.896z"/>
		</defs>
		<use xlink:href="#SVGID_1_"  overflow="visible" fill="#FFFFFF"/>
		<clipPath id="SVGID_2_">
			<use xlink:href="#SVGID_1_"  overflow="visible"/>
		</clipPath>
		<path clip-path="url(#SVGID_2_)" fill="#FFFFFF" d="M99.91,80.655c0,0-3.725,2.626-1.654,6.769c0,0,1.654,4.144,9.113,2.07
			c0,0,5.526-2.346,6.491-4.281C113.86,85.213,106.954,77.342,99.91,80.655z"/>
		<path clip-path="url(#SVGID_2_)" fill="#FFFFFF" d="M140.163,81.06c-6.879-3.641-14.144,3.898-14.144,3.898
			c0.874,1.977,6.282,4.578,6.282,4.578c7.354,2.419,9.2-1.641,9.2-1.641C143.766,83.852,140.163,81.06,140.163,81.06z"/>
	</g>
	<rect x="0.919" y="112.776" fill="#FFFFFF" width="298.162" height="75.98"/>
	<rect x="6.868" y="115.846" fill="#15284B" width="280.894" height="3.454"/>
	<rect x="6.868" y="182.245" fill="#AAADBC" width="280.894" height="3.452"/>
	<path fill="#15284B" d="M54.77,132.135l-5.116,8.562l-0.937-0.561c0.208-0.694,0.313-1.24,0.313-1.636
		c0-0.957-1.479-2.153-4.429-3.596c-4.062-2.001-8.486-3.001-13.28-3.001c-6.459,0-11.694,1.791-15.704,5.367
		c-4.084,3.651-6.124,8.37-6.124,14.167c0,5.773,2.12,10.563,6.363,14.375c4.105,3.719,9.164,5.577,15.183,5.577
		c5.879,0,11.069-1.708,15.563-5.129c2.028-1.545,3.046-2.643,3.046-3.29c0-0.321-0.201-0.854-0.589-1.595l0.829-0.657l6.154,7.482
		l-0.866,0.698c-0.645-0.58-1.175-0.87-1.588-0.87c-0.257,0-0.694,0.244-1.318,0.729c-2.117,1.596-3.878,2.789-5.272,3.586
		c-1.397,0.797-2.922,1.472-4.58,2.027c-3.436,1.174-7.218,1.766-11.347,1.766c-7.952,0-14.422-2.219-19.4-6.657
		c-5.234-4.644-7.849-10.572-7.849-17.784c0-5.679,1.636-10.602,4.912-14.763c5.117-6.518,12.783-9.776,22.999-9.776
		c6.757,0,13.293,1.81,19.612,5.43c0.415,0.231,0.704,0.347,0.866,0.347c0.298,0,0.84-0.442,1.624-1.325L54.77,132.135z"/>
	<path fill="#15284B" d="M60.585,163.206v-30.979c0-0.971-0.153-1.649-0.45-2.043c-0.297-0.396-0.883-0.704-1.751-0.938v-0.927
		h9.378v0.927c-0.87,0.233-1.456,0.542-1.754,0.938c-0.296,0.394-0.448,1.072-0.448,2.043v30.979c0,0.947,0.152,1.623,0.448,2.023
		c0.298,0.405,0.884,0.724,1.754,0.954v0.927h-9.378v-0.927c0.869-0.23,1.454-0.549,1.751-0.954
		C60.432,164.829,60.585,164.153,60.585,163.206z"/>
	<path fill="#AAADBC" d="M140.84,172.624l-16.803-28.92l-18.286,40.543l-11.819-0.402l24.561-57.969l19.205,24.976l34.896-73.836
		l-10.25-4.007l15.42-3.447l7.658,12.832l-9.089-4.23L140.84,172.624L140.84,172.624z"/>
	<path fill="#15284B" d="M193.96,131.997l-4.323,7.453l-0.801-0.518c0.164-0.598,0.243-1.058,0.243-1.381
		c0-0.482-0.461-1.024-1.384-1.621c-3.716-2.391-8.073-3.584-13.083-3.584c-4.892,0-8.983,1.345-12.285,4.034
		c-3.692,3.016-5.539,6.962-5.539,11.838c0,5.296,2.044,9.521,6.132,12.669c3.21,2.509,7.045,3.763,11.502,3.763
		c5.035,0,9.412-1.457,13.134-4.371c1.452-1.153,2.177-1.999,2.177-2.532c0-0.39-0.194-0.98-0.587-1.769l0.797-0.52l5.405,6.934
		l-0.728,0.623c-0.808-0.713-1.385-1.075-1.729-1.075c-0.187,0-0.46,0.151-0.833,0.452c-2.842,2.219-5.688,3.828-8.545,4.818
		c-2.855,0.994-6.048,1.491-9.581,1.491c-6.168,0-11.255-1.661-15.25-4.982c-2.012-1.661-3.614-3.632-4.816-5.917
		c-1.526-2.904-2.286-6.03-2.286-9.375c0-6.343,2.477-11.45,7.442-15.327c4.131-3.206,9.326-4.81,15.581-4.81
		c5.542,0,10.841,1.363,15.894,4.088c0.438,0.231,0.772,0.345,1.007,0.345c0.479,0,1.024-0.393,1.623-1.177L193.96,131.997z"/>
	<path fill="#15284B" d="M197.156,163.206v-30.979c0-0.971-0.15-1.652-0.448-2.043c-0.297-0.396-0.881-0.704-1.753-0.938v-0.928
		h9.378v0.928c-0.873,0.233-1.454,0.542-1.749,0.938c-0.302,0.391-0.448,1.072-0.448,2.043v30.979c0,0.944,0.146,1.623,0.448,2.023
		c0.295,0.405,0.876,0.724,1.749,0.954v0.927h-9.378v-0.927c0.872-0.23,1.456-0.549,1.753-0.954
		C197.006,164.829,197.156,164.15,197.156,163.206z"/>
	<path fill="#15284B" d="M236.862,156.225h-20.396l-2.905,6.502c-0.373,0.806-0.554,1.407-0.554,1.797
		c0,0.783,0.607,1.337,1.822,1.66v0.927h-9.608v-0.927c0.921-0.16,1.644-0.526,2.163-1.089c0.518-0.567,1.136-1.646,1.852-3.24
		l12.856-27.933c0.714-1.545,1.072-2.608,1.072-3.184c0-0.812-0.577-1.309-1.733-1.492v-0.928h11.259v0.928
		c-1.156,0.254-1.734,0.751-1.734,1.492c0,0.438,0.464,1.673,1.388,3.707l12.325,26.853c0.833,1.779,1.548,3.003,2.148,3.673
		c0.601,0.672,1.361,1.076,2.287,1.213v0.927h-10.075v-0.927c1.094-0.229,1.643-0.621,1.643-1.174c0-0.278-0.28-1.037-0.831-2.283
		L236.862,156.225z M235.223,152.403l-8.468-19.032l-8.566,19.032H235.223z"/>
	<path fill="#15284B" d="M295.63,129.906l-4.775,9.432l-1.041-0.518c0.143-0.835,0.212-1.41,0.212-1.727
		c0-0.689-0.939-1.527-2.82-2.507c-3.998-2.133-8.861-3.201-14.591-3.201c-4.605,0-8.51,0.852-11.721,2.545
		c-3.219,1.72-4.822,4.114-4.822,7.184c0,1.377,0.402,2.618,1.212,3.725c0.81,1.107,1.895,1.885,3.252,2.344
		c1.359,0.461,2.833,0.763,4.422,0.904c1.59,0.144,4.999,0.314,10.236,0.515c4.363,0.145,7.665,0.421,9.907,0.823
		c2.235,0.4,4.157,1.048,5.746,1.938c1.704,0.947,3.048,2.322,4.03,4.118c0.983,1.797,1.476,3.759,1.476,5.887
		c0,4.459-1.837,8.01-5.518,10.652c-4.398,3.139-10.247,4.701-17.544,4.701c-3.59,0-7.359-0.553-11.312-1.652
		c-3.954-1.105-7.625-2.613-11.008-4.523c-0.465-0.287-0.812-0.435-1.042-0.435c-0.438,0-1.088,0.508-1.954,1.515l-1.001-0.647
		l5.521-9.205l1.043,0.604c-0.087,0.35-0.147,0.575-0.173,0.693c-0.149,0.462-0.219,0.834-0.219,1.123
		c0,0.809,1.477,1.987,4.432,3.542c4.985,2.622,10.156,3.934,15.519,3.934c4.896,0,8.964-0.824,12.213-2.479
		c1.561-0.801,2.804-1.879,3.734-3.232c0.926-1.354,1.389-2.776,1.389-4.259c0-1.37-0.39-2.597-1.172-3.68
		c-0.779-1.087-1.809-1.859-3.082-2.315c-1.187-0.396-2.511-0.683-3.972-0.854c-1.462-0.17-4.215-0.326-8.269-0.471
		c-4.777-0.199-8.193-0.437-10.245-0.713c-2.056-0.275-3.99-0.747-5.814-1.41c-2.313-0.832-4.181-2.188-5.598-4.063
		c-1.423-1.935-2.127-4.215-2.127-6.84c0-4.646,2.111-8.294,6.341-10.949c4.312-2.71,9.799-4.066,16.463-4.066
		c6.079,0,12.187,1.365,18.33,4.094c0.926,0.381,1.465,0.564,1.606,0.564c0.466,0,1.015-0.534,1.652-1.608L295.63,129.906z"/>
	<path fill="#15284B" d="M42.011,103.775l-14.967-7.111l4.712-9.92l1.6,0.759l-3.547,7.468l4.978,2.364l2.99-6.292l1.603,0.759
		l-2.992,6.294l6.791,3.228L42.011,103.775z"/>
	<path fill="#15284B" d="M52.22,84.427l-8.385-16.254l1.665-2.126l17.72,4.332l-1.815,2.322l-4.92-1.189l-5.027,6.414l2.324,4.505
		L52.22,84.427z M50.57,76.204l4.032-5.152l-7.644-1.848L50.57,76.204z"/>
	<path fill="#15284B" d="M83.089,51.986c-0.402,0.765-0.795,1.405-1.176,1.923s-0.81,1.016-1.284,1.488
		c-0.475,0.478-1.021,0.958-1.632,1.441c-2.539,2.013-4.917,2.836-7.121,2.478c-2.204-0.361-4.08-1.521-5.626-3.477
		c-1.583-1.997-2.265-4.122-2.055-6.37c0.211-2.245,1.583-4.372,4.112-6.375c1.349-1.063,3.08-2.126,5.195-3.185l1.353,1.707
		c-1.869,0.773-3.121,1.345-3.761,1.721c-0.635,0.378-1.215,0.769-1.727,1.175c-1.81,1.435-2.705,2.997-2.684,4.695
		c0.024,1.698,0.64,3.312,1.851,4.847c1.265,1.594,2.75,2.513,4.464,2.759c1.715,0.248,3.429-0.313,5.144-1.667
		c0.475-0.376,0.919-0.788,1.333-1.234c0.415-0.45,0.801-0.931,1.156-1.446c0.355-0.514,0.751-1.209,1.189-2.08L83.089,51.986z"/>
	<path fill="#15284B" d="M88.381,30.524l2.492-1.14l4.359,9.498c0.76,1.655,1.644,2.624,2.644,2.912
		c1.004,0.288,2.153,0.134,3.44-0.461c0.817-0.373,1.45-0.808,1.899-1.307c0.453-0.499,0.707-1.088,0.767-1.775
		c0.058-0.683-0.203-1.663-0.788-2.938l-4.394-9.571l2.132-0.979l4.383,9.544c0.748,1.636,1.058,2.916,0.92,3.856
		c-0.138,0.937-0.537,1.813-1.197,2.629c-0.659,0.819-1.693,1.551-3.106,2.199c-1.506,0.689-2.824,1.028-3.957,1.014
		c-1.131-0.012-2.111-0.294-2.936-0.843c-0.824-0.55-1.591-1.599-2.305-3.153L88.381,30.524z"/>
	<path fill="#15284B" d="M121.772,35.501l-3.43-16.25l2.667-0.563l3.068,14.543l8.394-1.77l0.359,1.706L121.772,35.501z"/>
	<path fill="#15284B" d="M150.093,31.971l0.239-14.828l-6.828-0.111l0.032-1.777l16.389,0.268l-0.03,1.775l-6.825-0.111
		l-0.239,14.828L150.093,31.971z"/>
	<path fill="#15284B" d="M169.889,33.167l11.271-14.364l2.626,0.633l3.454,17.906l-2.87-0.693l-0.972-4.97l-7.918-1.906
		l-3.127,3.989L169.889,33.167z M176.673,28.255l6.358,1.53l-1.504-7.714L176.673,28.255z"/>
	<path fill="#15284B" d="M199.008,41.95l7.694-14.688l5.664,2.969c2.188,1.144,3.705,2.288,4.547,3.422
		c0.845,1.14,1.312,2.401,1.404,3.783c0.093,1.386-0.25,2.816-1.022,4.289c-0.732,1.396-1.695,2.523-2.893,3.377
		c-1.198,0.86-2.576,1.326-4.142,1.397c-1.568,0.074-3.416-0.447-5.55-1.567L199.008,41.95z M202.243,41.649l3.1,1.623
		c1.612,0.844,2.934,1.256,3.965,1.238c1.032-0.02,2.027-0.386,2.975-1.103c0.955-0.714,1.736-1.654,2.348-2.823
		c0.542-1.031,0.835-2.07,0.889-3.13c0.056-1.051-0.224-2.064-0.829-3.035c-0.607-0.97-2.075-2.063-4.401-3.285l-1.99-1.042
		L202.243,41.649z"/>
	<path fill="#15284B" d="M237.789,69.745l12.873-10.498l4.034,4.948c1.558,1.909,2.499,3.554,2.824,4.926
		c0.323,1.375,0.256,2.717-0.207,4.027c-0.463,1.309-1.341,2.49-2.633,3.544c-1.226,0.997-2.554,1.655-3.996,1.977
		c-1.436,0.32-2.89,0.208-4.358-0.337c-1.466-0.544-2.959-1.751-4.478-3.611L237.789,69.745z M240.851,70.742l2.208,2.704
		c1.148,1.408,2.201,2.305,3.16,2.689c0.958,0.388,2.017,0.437,3.177,0.148c1.159-0.287,2.255-0.851,3.283-1.688
		c0.906-0.741,1.596-1.587,2.063-2.537c0.467-0.955,0.616-1.994,0.443-3.125c-0.17-1.131-1.084-2.715-2.743-4.745l-1.42-1.74
		L240.851,70.742z"/>
	<path fill="#15284B" d="M254.96,93.938l14.901-7.31l4.758,9.709l-1.562,0.766l-3.558-7.252l-4.802,2.354l2.984,6.079l-1.566,0.771
		l-2.983-6.082l-5.404,2.651l3.804,7.754l-1.566,0.764L254.96,93.938z"/>
	<path fill="#15284B" d="M64.324,250.433L72.6,240.16l6.648,5.355l-0.892,1.104l-4.96-3.995l-2.644,3.28l4.158,3.349l-0.891,1.105
		l-4.157-3.35l-2.964,3.679l5.305,4.275l-0.89,1.103L64.324,250.433z"/>
	<path fill="#15284B" d="M74.654,258.348l1.249-1.831l2.102,1.432l-1.249,1.834L74.654,258.348z"/>
	<path fill="#15284B" d="M81.389,262.803l6.531-11.443l3.607,2.062c1.041,0.59,1.799,1.12,2.278,1.59
		c0.48,0.468,0.794,0.991,0.939,1.565c0.191,0.761,0.047,1.562-0.435,2.408c-0.694,1.217-1.717,1.903-3.063,2.05
		c-1.348,0.148-2.869-0.262-4.56-1.229l-0.831-0.472l-2.592,4.538L81.389,262.803z M86.552,258.112l0.756,0.434
		c1.111,0.635,2.095,0.899,2.955,0.802c0.86-0.101,1.522-0.558,1.987-1.374c0.388-0.683,0.427-1.309,0.119-1.875
		c-0.31-0.564-1.019-1.164-2.122-1.792l-1.147-0.659L86.552,258.112z"/>
	<path fill="#15284B" d="M93.059,269.085l0.939-1.989l2.303,1.08l-0.933,1.99L93.059,269.085z"/>
	<path fill="#15284B" d="M100.392,272.475l4.449-12.399l2.002,0.716l3.808,12.199l3.443-9.596l1.738,0.622l-4.449,12.403
		l-1.992-0.716l-3.819-12.201l-3.441,9.599L100.392,272.475z"/>
	<path fill="#15284B" d="M132.616,281.078l1.445-13.088l8.478,0.937l-0.151,1.374l-6.311-0.698l-0.465,4.214l5.285,0.581
		l-0.152,1.375l-5.286-0.583l-0.522,4.752l6.752,0.744l-0.151,1.378L132.616,281.078z"/>
	<path fill="#15284B" d="M156.946,281.621c-1.506,0.659-3.151,0.984-4.926,0.984c-2.369-0.003-4.2-0.602-5.493-1.799
		c-1.293-1.198-1.936-2.898-1.935-5.104c0.002-2.198,0.659-3.899,1.973-5.106c1.314-1.205,3.169-1.807,5.561-1.807
		c1.363,0,2.957,0.2,4.785,0.596v1.736c-2.085-0.632-3.698-0.948-4.829-0.95c-1.652,0-2.934,0.485-3.84,1.453
		c-0.905,0.972-1.359,2.342-1.359,4.108c0,1.692,0.484,3.024,1.452,3.993c0.969,0.971,2.296,1.458,3.98,1.458
		c1.437,0,2.983-0.394,4.631-1.181V281.621z"/>
	<path fill="#15284B" d="M159.873,268.936l2.162-0.268l1.004,8.242c0.159,1.316,0.56,2.234,1.193,2.766
		c0.634,0.527,1.564,0.716,2.79,0.568c1.202-0.146,2.014-0.531,2.447-1.152c0.429-0.626,0.563-1.606,0.402-2.947l-1.014-8.307
		l1.901-0.231l1.009,8.274c0.138,1.14,0.115,2.032-0.07,2.675c-0.185,0.644-0.589,1.241-1.206,1.788
		c-0.778,0.68-1.908,1.107-3.389,1.29c-1.925,0.233-3.388-0.012-4.394-0.736c-1.006-0.726-1.62-1.971-1.835-3.745L159.873,268.936z"
		/>
	<path fill="#15284B" d="M175.816,280.113l2.706-14.257l2.08-0.515l8.965,11.362l-2.244,0.556l-2.503-3.16l-6.307,1.565
		l-0.758,3.967L175.816,280.113z M178.789,274.176l5.089-1.265l-3.92-4.923L178.789,274.176z"/>
	<path fill="#15284B" d="M193.06,275.522l-4.743-12.276l4.729-1.826c1.411-0.546,2.603-0.853,3.578-0.914
		c0.969-0.066,1.9,0.101,2.783,0.505c1.406,0.639,2.432,1.801,3.084,3.48c0.73,1.9,0.734,3.666,0.011,5.296
		c-0.392,0.896-0.957,1.646-1.689,2.256c-0.732,0.606-1.731,1.157-2.993,1.644L193.06,275.522z M194.589,273.442l2.588-0.998
		c1.846-0.714,2.988-1.65,3.427-2.806c0.474-1.231,0.412-2.619-0.181-4.159c-0.56-1.442-1.404-2.42-2.535-2.931
		c-0.689-0.313-1.413-0.43-2.174-0.351c-0.755,0.082-1.824,0.387-3.202,0.916l-1.666,0.646L194.589,273.442z"/>
	<path fill="#15284B" d="M214.721,266.27c-1.901,1.034-3.724,1.313-5.462,0.835c-1.735-0.482-3.105-1.643-4.114-3.485
		c-1.002-1.842-1.231-3.625-0.695-5.345c0.541-1.72,1.76-3.099,3.662-4.137c1.901-1.036,3.724-1.315,5.461-0.834
		c1.738,0.482,3.108,1.642,4.11,3.482c1.008,1.847,1.238,3.626,0.702,5.348C217.844,263.853,216.625,265.231,214.721,266.27z
		 M214.058,265.05c1.329-0.722,2.136-1.721,2.415-2.983c0.28-1.265,0.003-2.661-0.828-4.185c-0.824-1.517-1.843-2.499-3.054-2.945
		c-1.214-0.442-2.486-0.304-3.814,0.423c-1.331,0.725-2.137,1.716-2.419,2.975c-0.286,1.258-0.01,2.646,0.812,4.162
		c0.833,1.526,1.856,2.517,3.072,2.966C211.456,265.911,212.726,265.775,214.058,265.05z"/>
	<path fill="#15284B" d="M224.605,260.032l-7.669-10.71l3.758-2.694c1.193-0.853,2.271-1.282,3.229-1.282
		c0.962,0,1.755,0.436,2.373,1.299c0.485,0.682,0.706,1.443,0.654,2.28c-0.052,0.844-0.363,1.688-0.941,2.532l7.694,2.062
		l-2.165,1.549l-6.735-2.01l-1.672,1.192l3.237,4.521L224.605,260.032z M222.311,253.106l0.573-0.409
		c1.085-0.777,1.777-1.561,2.072-2.348c0.292-0.786,0.176-1.545-0.347-2.276c-0.795-1.107-2.12-0.998-3.982,0.335l-1.109,0.796
		L222.311,253.106z"/>
	<path fill="#15284B" d="M78.981,149.24v14.243h23.999c0.969,0,1.658-0.146,2.061-0.438c0.403-0.294,0.71-0.878,0.922-1.763h0.923
		v8.224h-0.923c-0.212-0.869-0.513-1.455-0.905-1.752c-0.394-0.301-1.075-0.447-2.046-0.447H71.801v-0.929
		c0.894-0.231,1.485-0.547,1.768-0.952c0.289-0.405,0.431-1.078,0.431-2.024V132.42c0-0.97-0.149-1.648-0.447-2.042
		c-0.298-0.394-0.883-0.705-1.752-0.939v-0.926h30.945c0.973,0,1.65-0.147,2.047-0.445c0.392-0.297,0.707-0.881,0.937-1.752h0.926
		v8.222h-0.926c-0.23-0.88-0.545-1.468-0.937-1.765c-0.396-0.291-1.074-0.438-2.047-0.438H78.981v13.085h15.19
		c0.975,0,1.652-0.145,2.049-0.444c0.394-0.298,0.709-0.882,0.939-1.751h0.926v8.217H97.16c-0.23-0.879-0.55-1.465-0.959-1.76
		c-0.402-0.29-1.082-0.44-2.029-0.44H78.981z"/>
</g>
</svg>
